<?xml version="1.0" encoding="utf-8"?>
<!-- Generator: Adobe Illustrator 25.4.1, SVG Export Plug-In . SVG Version: 6.00 Build 0)  -->
<svg version="1.1"
	 id="svg2" sodipodi:docname="j360.svg" xmlns:cc="http://creativecommons.org/ns#" xmlns:dc="http://purl.org/dc/elements/1.1/" xmlns:inkscape="http://www.inkscape.org/namespaces/inkscape" xmlns:rdf="http://www.w3.org/1999/02/22-rdf-syntax-ns#" xmlns:sodipodi="http://sodipodi.sourceforge.net/DTD/sodipodi-0.dtd" xmlns:svg="http://www.w3.org/2000/svg"
	 xmlns="http://www.w3.org/2000/svg" xmlns:xlink="http://www.w3.org/1999/xlink" x="0px" y="0px" viewBox="0 0 109.6 51.5"
	 style="enable-background:new 0 0 109.6 51.5;" xml:space="preserve">
<style type="text/css">
	.st0{fill:#3D7FC9;}
	.st1{fill:#FFFFFF;}
</style>
<sodipodi:namedview  bordercolor="#666666" borderopacity="1" gridtolerance="10" guidetolerance="10" id="namedview28" inkscape:current-layer="g20" inkscape:cx="778.72966" inkscape:cy="-134.65642" inkscape:pageopacity="0" inkscape:pageshadow="2" inkscape:window-height="1056" inkscape:window-maximized="1" inkscape:window-width="1896" inkscape:window-x="24" inkscape:window-y="0" inkscape:zoom="0.58354245" objecttolerance="10" pagecolor="#ffffff" showgrid="false" showguides="false">
	</sodipodi:namedview>
<g id="g14">
	<path class="st0" d="M83.8,0L83.8,0L83.8,0H25.7l0,0C11.5,0,0,11.5,0,25.7C0,40,11.5,51.5,25.7,51.5l0,0h58.1l0,0
		c14.2,0,25.7-11.5,25.7-25.7S98.1,0,83.8,0z"/>
	<g id="g30" transform="translate(266.2878,159.6619)">
		<path id="path32" inkscape:connector-curvature="0" class="st1" d="M-224.2-133.6c0,9.5-7.7,17.2-17.2,17.2
			c-9.5,0-17.2-7.7-17.2-17.2c0-9.5,7.7-17.2,17.2-17.2C-231.9-150.8-224.2-143.1-224.2-133.6"/>
	</g>
</g>
<g id="text34" transform="matrix(1,0,0,-1,98.4353,92.5716)">
	<path id="path3381" inkscape:connector-curvature="0" class="st0" d="M-74.9,55.3c4.5,0,7.9,2.7,7.9,7.5v14.9h-5V62.9
		c0-1.3-0.7-2.6-2.9-2.6c-1.7,0-2.4,0.7-3.1,1.9l-4.4-2.5C-80.9,56.8-78.4,55.3-74.9,55.3z"/>
</g>
<g id="text38" transform="matrix(1,0,0,-1,396.876,88.4925)">
	<path id="path3384" inkscape:connector-curvature="0" class="st1" d="M-323.7,66.9l5,7.3h-6.1l-7.1-10.7c-0.9-1.3-1.3-2.9-1.3-4.7
		c0-4.8,3.5-8.2,8.6-8.2c5.1,0,8.6,3.4,8.6,8.2C-316,63.3-319.1,66.6-323.7,66.9z M-324.6,55.6c-1.8,0-3.3,1.2-3.3,3.2
		s1.5,3.2,3.3,3.2c1.7,0,3.3-1.2,3.3-3.2S-322.8,55.6-324.6,55.6z"/>
	<path id="path3386" inkscape:connector-curvature="0" class="st1" d="M-304.9,50.6c6,0,9.4,4.9,9.4,12.1s-3.4,12.1-9.4,12.1
		s-9.4-4.9-9.4-12.1S-310.9,50.6-304.9,50.6z M-304.9,55.7c-2.8,0-4.1,2.4-4.1,6.9s1.4,6.9,4.1,6.9c2.8,0,4.1-2.4,4.1-6.9
		S-302.1,55.7-304.9,55.7z"/>
</g>
<g id="g44">
	<g id="g50" transform="translate(409.5298,150.2593)">
		<path id="path52" inkscape:connector-curvature="0" class="st1" d="M-347.6-119.4c0,4.3-3.7,7-8.6,7c-4.3,0-6.8-2.2-8.2-5.5
			l4.6-2.6c0.6,1.8,1.6,3.1,3.6,3.1c2.2,0,3.3-1.6,3.3-3.1c0-0.9-0.7-2.5-3.3-2.5h-1.5v-3.5h0.8c2.1,0,3.1-1.6,3.1-2.5
			c0-1.7-0.8-2.5-2.7-2.5c-1.5,0-2.4,1.3-3,2.7l-4.5-2.6c1.4-2.9,3.7-5.1,7.5-5.1c4.6,0,8.1,2.5,8.1,6.8c0,2.1-0.9,3.6-2.3,4.7
			C-348.8-123.7-347.6-121.9-347.6-119.4"/>
	</g>
</g>
</svg>
