<svg width="150" height="35" viewBox="0 0 150 35" fill="none" xmlns="http://www.w3.org/2000/svg">
<path d="M0 35H5V25H13.5741L22.9462 35H29.75L20.3779 25H22.5C26.6421 25 30 21.6421 30 17.5C30 13.3579 26.6421 10 22.5 10H0V15H22.5C23.8807 15 25 16.1193 25 17.5C25 18.8807 23.8807 20 22.5 20H2.5C1.11929 20 0 21.1193 0 22.5V35Z" fill="white"/>
<path d="M40 35H35V10H40V35Z" fill="white"/>
<path d="M50 20H45V35H62.5C69.4036 35 75 29.4036 75 22.5C75 15.5964 69.4036 10 62.5 10H45V15H62.5C66.6421 15 70 18.3579 70 22.5C70 26.6421 66.6421 30 62.5 30H50V20Z" fill="white"/>
<path d="M77.5 10H107.5V15H77.5V10Z" fill="white"/>
<path d="M77.5 20H107.5V25H77.5V20Z" fill="white"/>
<path d="M77.5 30H107.5V35H77.5V30Z" fill="white"/>
<path d="M110 10H116.884L125.305 18.9684L143.116 0H150L128.747 22.6341L140.358 35L133.462 34.9867L125.305 26.2998L117.136 35H110.252L121.863 22.6341L110 10Z" fill="white"/>
</svg>
