<?xml version="1.0" encoding="UTF-8"?>
<!DOCTYPE svg PUBLIC "-//W3C//DTD SVG 1.1//EN" "http://www.w3.org/Graphics/SVG/1.1/DTD/svg11.dtd">
<!-- Creator: CorelDRAW 2020 (64-Bit) -->
<svg xmlns="http://www.w3.org/2000/svg" xml:space="preserve" width="2292px" height="1594px" version="1.1" style="shape-rendering:geometricPrecision; text-rendering:geometricPrecision; image-rendering:optimizeQuality; fill-rule:evenodd; clip-rule:evenodd"
viewBox="0 0 2290.32 1592.72"
 xmlns:xlink="http://www.w3.org/1999/xlink"
 xmlns:xodm="http://www.corel.com/coreldraw/odm/2003">
 <defs>
  <style type="text/css">
   <![CDATA[
    .fil1 {fill:#03456E}
    .fil0 {fill:#4BB1D2}
    .fil3 {fill:#03456E;fill-rule:nonzero}
    .fil2 {fill:#4BB1D2;fill-rule:nonzero}
   ]]>
  </style>
 </defs>
 <g id="Слой_x0020_1">
  <metadata id="CorelCorpID_0Corel-Layer"/>
  <g id="_3042531325072">
   <path class="fil0" d="M834.56 351.95c5.66,-0.98 13.94,-2.07 25.56,-2.88 26.61,-1.84 70.68,-2.16 140.97,0.25 49.85,1.71 112.89,4.8 180.8,7.25 -0.52,-12.59 -1.47,-31.09 -4.36,-53.57 -2.79,-21.62 -7.36,-46.93 -9.81,-65.2 -32.58,-1.04 -63.92,2.83 -96.03,10.35 -46.64,10.94 -94.89,29.6 -136.06,49.22 -35.4,16.87 -66.97,37.14 -101.07,54.58zm380.54 5.75c17.21,0.55 34.65,1.04 52.17,1.43 63.47,1.44 128.12,1.7 188.01,2.37 -18.67,-15.57 -52.3,-42.92 -94.08,-66.06 -44.71,-24.77 -98.75,-44.71 -148.29,-53.08 -1.59,-0.26 -3.18,-0.52 -4.76,-0.77 1.88,14.13 4.3,35.63 5.72,58.52 1.29,20.73 1.75,42.6 1.23,57.59zm320.28 5.16c68.24,1.76 144.91,4.57 210.87,22.33 50.18,13.51 88.14,34.74 111.94,61.11 23.81,26.38 33.45,57.91 38.28,73.67 4.83,15.76 4.83,15.76 -14.15,9.33 -18.98,-6.44 -56.94,-19.3 -75.92,-25.74l-1 -0.34c-21.16,-40.58 -63.61,-68.28 -112.55,-68.28 -7.62,0 -15.09,0.67 -22.34,1.96 -17.94,-0.61 -34.48,1.19 -44.89,2.33 -17.69,1.93 -17.69,1.93 -66.59,-4.83 -48.89,-6.75 -146.68,-20.26 -266.67,-32.81 -119.98,-12.54 -262.16,-24.12 -362.85,-25.41 -80.93,-1.03 -135.04,4.58 -168.53,9.17l0 -0.04c1.66,-17.45 4.51,-34.64 8.9,-51.62 237.38,-169.76 456.62,-203.05 700.05,-22.81 29.41,21.78 50.82,39.32 65.45,51.98z"/>
   <path class="fil0" d="M760.2 394.74c56.52,-7.55 111.56,-10.18 169.2,-9.44 77.59,0.99 156.17,6.66 233.48,13.19 42.89,3.62 85.73,7.7 128.53,12.17 89.05,9.31 177.7,20.52 266.38,32.78 12.47,1.72 25.02,3.57 37.54,4.97 6.34,0.7 12.61,1.24 18.99,0.97 4.11,-0.17 8.21,-0.64 12.29,-1.09 3.93,-0.42 7.93,-0.83 11.97,-1.18 -42.9,20.34 -72.58,64.04 -72.58,114.68 0,13.69 2.18,26.88 6.2,39.24 -9.92,0.33 -29.28,0.33 -66.89,0.33 -77.52,0 -232.57,0 -340.17,0 -107.6,0 -167.75,0 -197.83,-1.13 -11.09,-0.42 -18.09,-0.98 -22.41,-2.03 3.45,-11.53 5.31,-23.75 5.31,-36.41 0,-70.06 -56.79,-126.85 -126.85,-126.85 -21.62,0 -41.98,5.41 -59.79,14.95l-0.01 -0.03c-4.13,-18.15 -4.58,-36.62 -3.36,-55.12z"/>
   <path class="fil0" d="M1692.85 444.05c65.03,0 117.74,52.71 117.74,117.74 0,65.02 -52.71,117.73 -117.74,117.73 -65.02,0 -117.73,-52.71 -117.73,-117.73 0,-65.03 52.71,-117.74 117.73,-117.74zm0 61.76c30.92,0 55.98,25.06 55.98,55.98 0,30.91 -25.06,55.97 -55.98,55.97 -30.91,0 -55.97,-25.06 -55.97,-55.97 0,-30.92 25.06,-55.98 55.97,-55.98z"/>
   <path class="fil0" d="M823.36 444.05c65.03,0 117.74,52.71 117.74,117.74 0,16.7 -3.49,32.58 -9.76,46.97 -21.42,-2.47 -40.43,-7.02 -60.01,-18.12 5.08,-8.42 8.01,-18.3 8.01,-28.85 0,-30.92 -25.06,-55.98 -55.98,-55.98 -10.92,0 -21.11,3.13 -29.72,8.54 -11.74,-17.18 -21.73,-35.37 -27.69,-55.36 16.99,-9.51 36.57,-14.94 57.41,-14.94z"/>
   <path class="fil0" d="M1901.33 541.57c6.41,22.1 10.3,46.06 10.67,49.26 0.64,5.46 0.64,5.46 -18.82,5.46 -19.1,0 -56.97,0.01 -78.53,1.02 3.29,-11.27 5.06,-23.19 5.06,-35.52 0,-16.67 -3.23,-32.58 -9.07,-47.15 22.91,7.78 45.83,15.53 68.75,23.29 6.17,2.1 15.26,6.15 21.94,3.64z"/>
   <path class="fil1" d="M983.58 70.84c13.51,-2.58 27.02,-5.15 38.93,-7.24 11.9,-2.09 22.19,-3.7 27.82,-7.24 5.63,-3.54 6.6,-9.01 9.65,-17.69 3.06,-8.69 8.2,-20.59 10.94,-26.54 2.73,-5.95 3.05,-5.95 16.89,-7.24 13.83,-1.28 41.17,-3.86 54.36,-4.66 13.19,-0.81 12.22,0.16 12.55,9.01 0.32,8.84 1.92,25.57 2.73,33.93 0.8,8.37 0.8,8.37 10.77,9.98 9.98,1.6 29.92,4.82 44.08,7.55 14.15,2.74 22.51,4.99 26.69,6.12 4.19,1.12 4.19,1.12 12.87,-6.44 8.69,-7.56 26.06,-22.68 34.74,-30.24 8.69,-7.55 8.69,-7.55 19.79,-2.57 11.09,4.99 33.29,14.96 44.39,19.95 11.1,4.98 11.1,4.98 8.04,10.61 -3.06,5.63 -9.17,16.89 -12.22,28.79 -3.06,11.9 -3.06,24.45 4.18,36.67 7.23,12.23 21.71,24.13 28.95,30.08 7.24,5.95 7.24,5.95 20.1,2.89 12.87,-3.05 38.6,-9.16 51.47,-12.22 12.87,-3.06 12.87,-3.06 19.95,8.04 7.07,11.1 21.23,33.29 28.3,44.39 7.08,11.1 7.08,11.1 -4.82,18.98 -11.9,7.88 -35.71,23.64 -47.61,31.53 -11.9,7.88 -11.9,7.88 -20.43,6.43 -8.52,-1.45 -25.57,-4.34 -39.88,-10.61 -14.32,-6.28 -25.9,-15.93 -34.58,-22.36 -8.69,-6.44 -14.48,-9.65 -25.42,-24.13 -10.94,-14.47 -27.02,-40.21 -55.17,-60.96 -28.14,-20.74 -68.35,-36.51 -111.78,-43.74 -43.42,-7.24 -90.07,-5.96 -139.28,7.4 -49.22,13.34 -101.01,38.76 -142.99,69.8 -41.98,31.04 -74.14,67.71 -94.23,105.02 -20.08,37.3 -28.08,75.24 -31.45,110.31 -3.38,35.06 -2.14,67.24 15.85,103.99 17.99,36.75 52.73,78.07 84.9,101.07 32.16,23 61.76,27.68 97.31,30.03 35.54,2.34 77.04,2.34 143.79,2.34 66.75,0 158.74,0 204.75,0.96 45.99,0.97 45.99,2.9 49.7,9.98 3.69,7.07 11.09,19.3 14.79,25.41 3.7,6.11 3.7,6.11 -14.31,19.78 -18.02,13.67 -54.04,41.02 -72.06,54.69 -18.01,13.67 -18.01,13.67 -31.52,-0.81 -13.51,-14.47 -40.53,-43.42 -54.04,-57.9 -13.51,-14.47 -13.51,-14.47 -21.88,-8.36 -8.36,6.11 -25.09,18.33 -44.87,25.25 -19.79,6.91 -42.62,8.52 -54.04,9.33 -11.42,0.8 -11.42,0.8 -21.07,22.03 -9.65,21.23 -28.96,63.69 -38.61,84.92 -9.65,21.23 -9.65,21.23 -30.71,21.23 -21.08,0 -63.21,0 -84.28,0 -21.07,0 -21.07,0 -20.91,-20.42 0.16,-20.43 0.48,-61.28 0.64,-81.71 0.16,-20.42 0.16,-20.42 -7.56,-21.07 -7.72,-0.64 -23.16,-1.93 -39.73,-7.96 -16.57,-6.03 -34.27,-16.81 -43.12,-22.19 -8.85,-5.39 -8.85,-5.39 -23.53,9.28 -14.67,14.68 -44.02,44.03 -59.62,57.78 -15.59,13.75 -17.44,11.9 -30.91,-2.53 -13.47,-14.43 -38.56,-41.45 -51.1,-54.96 -12.55,-13.51 -12.55,-13.51 2.89,-29.12 15.44,-15.6 46.32,-46.8 61.76,-62.4 15.44,-15.6 15.44,-15.6 11.75,-21.23 -3.7,-5.63 -11.1,-16.89 -15.77,-30.56 -4.66,-13.67 -6.59,-29.76 -7.56,-37.8 -0.96,-8.04 -0.96,-8.04 -18.33,-6.91 -17.37,1.12 -52.11,3.37 -69.48,4.5 -17.37,1.12 -17.37,1.12 -16.09,-13.99 1.29,-15.12 3.86,-45.36 5.15,-60.48 1.28,-15.12 1.28,-15.12 17.21,-20.58 15.92,-5.47 47.77,-16.41 63.69,-21.88 15.92,-5.47 15.92,-5.47 18.5,-14.48 2.57,-9 7.72,-27.02 15.6,-43.1 7.88,-16.08 18.49,-30.24 23.8,-37.31 5.31,-7.08 5.31,-7.08 -4.82,-11.42 -10.14,-4.35 -30.4,-13.03 -40.86,-17.21 -10.45,-4.19 -11.09,-3.86 0.49,-16.57 11.58,-12.71 35.38,-38.44 47.28,-51.31 11.91,-12.86 11.91,-12.86 25.25,-11.74 13.35,1.13 40.05,3.38 53.4,4.5 13.35,1.13 13.35,1.13 16.09,-2.57 2.73,-3.7 8.2,-11.1 16.24,-18.01 8.04,-6.92 18.66,-13.35 23.97,-16.57 5.3,-3.22 5.3,-3.22 5.46,-14.64 0.16,-11.42 0.49,-34.25 0.65,-45.67 0.16,-11.42 0.16,-11.42 12.54,-18.5 12.39,-7.08 37.16,-21.23 49.54,-28.31 12.39,-7.07 12.39,-7.07 21.23,-0.96 8.85,6.11 26.54,18.33 44.23,30.56z"/>
   <g>
    <path class="fil2" d="M23.53 977.32l28.01 0 85.43 199.22 86.85 -199.22 28.02 0 -112.18 257.34 -5.74 0 -110.39 -257.34zm248.59 0l25.8 0 0 257.34 -25.8 0 0 -257.34zm66.09 257.34l0 -257.34 5.55 0 171.15 196.83 0 -196.83 25.81 0 0 257.34 -5.86 0 -170.13 -195.1 0 195.1 -26.52 0z"/>
    <path class="fil2" d="M702.19 1234.66l0 -257.34 53.4 0c38.47,0 66.43,3.1 83.81,9.26 24.97,8.78 44.5,23.89 58.54,45.52 14.04,21.56 21.09,47.25 21.09,77.12 0,25.8 -5.56,48.44 -16.73,68.03 -11.11,19.6 -25.62,34.11 -43.37,43.43 -17.8,9.32 -42.77,13.98 -74.85,13.98l-81.89 0zm24.73 -24.37l29.69 0c35.48,0 60.03,-2.21 73.77,-6.63 19.29,-6.33 34.53,-17.62 45.58,-33.99 11.05,-16.43 16.55,-36.44 16.55,-60.1 0,-24.79 -5.98,-46.05 -17.99,-63.62 -11.94,-17.62 -28.67,-29.68 -50.05,-36.2 -16.07,-4.9 -42.54,-7.34 -79.39,-7.34l-18.16 0 0 207.88z"/>
    <path class="fil0" d="M1117.2 1198.79c-6.82,8.79 -15.64,16.69 -26.51,23.8 -26.1,17.06 -52.01,21.87 -77.82,14.48 -25.81,-7.38 -45.72,-21.78 -59.71,-43.18 -13.18,-20.15 -18.7,-42.23 -16.54,-66.12 2.64,-30.35 17.21,-54.23 43.66,-71.52 27.25,-17.82 55.78,-21.77 85.47,-11.85 21.03,6.95 38.77,21.19 53.19,42.81l-144 94.15c12.47,18.19 28.29,29.4 47.42,33.66 19.22,4.28 37.27,0.9 54.12,-10.12 8.15,-5.33 15.19,-11.93 21.05,-19.76 4.3,-5.74 7.67,-11.56 10.09,-17.47 1.97,10.85 5.17,21.24 9.58,31.12zm-32.34 -114.57c-9.9,-9.15 -19.59,-15.23 -29.13,-18.35 -9.58,-3.09 -19.96,-3.79 -31.23,-2.14 -11.26,1.66 -21.67,5.61 -31.17,11.82 -15.75,10.3 -25.98,24.13 -30.71,41.56 -3.49,12.78 -2.53,27.79 2.8,45.21l119.44 -78.1z"/>
    <path class="fil2" d="M1334.02 1083.89l-19.41 12.06c-16.85,-22.22 -39.85,-33.33 -69,-33.33 -23.3,0 -42.65,7.47 -58.06,22.34 -15.35,14.88 -23.06,32.92 -23.06,54.18 0,13.86 3.52,26.88 10.63,39.07 7.05,12.19 16.79,21.68 29.15,28.43 12.31,6.75 26.17,10.1 41.52,10.1 28.08,0 51.02,-11.11 68.82,-33.33l19.41 12.78c-9.14,13.68 -21.38,24.25 -36.74,31.84 -15.41,7.53 -32.91,11.29 -52.56,11.29 -30.23,0 -55.26,-9.56 -75.15,-28.61 -19.9,-19.12 -29.81,-42.3 -29.81,-69.66 0,-18.33 4.66,-35.42 13.98,-51.19 9.26,-15.77 22.04,-28.08 38.29,-36.92 16.31,-8.84 34.47,-13.26 54.6,-13.26 12.66,0 24.85,1.91 36.62,5.74 11.7,3.82 21.68,8.84 29.86,14.99 8.25,6.15 15.18,13.98 20.91,23.48z"/>
    <path class="fil2" d="M1449.49 1039.68c29.33,0 53.7,10.57 73,31.78 17.56,19.3 26.34,42.17 26.34,68.58 0,26.52 -9.26,49.7 -27.84,69.53 -18.51,19.83 -42.41,29.75 -71.5,29.75 -29.27,0 -53.23,-9.92 -71.74,-29.75 -18.58,-19.83 -27.84,-43.01 -27.84,-69.53 0,-26.28 8.78,-49.1 26.34,-68.4 19.3,-21.33 43.73,-31.96 73.24,-31.96zm-0.12 24.02c-20.37,0 -37.81,7.46 -52.45,22.46 -14.63,14.99 -21.92,33.15 -21.92,54.42 0,13.68 3.34,26.46 9.97,38.35 6.7,11.82 15.72,20.96 27.07,27.42 11.29,6.45 23.77,9.67 37.33,9.67 13.56,0 26.05,-3.22 37.34,-9.67 11.35,-6.46 20.37,-15.6 27.06,-27.42 6.63,-11.89 9.97,-24.67 9.97,-38.35 0,-21.27 -7.35,-39.43 -22.04,-54.42 -14.64,-15 -32.08,-22.46 -52.33,-22.46z"/>
    <path class="fil2" d="M1765.04 970.87l0 263.79 -24.37 0 0 -32.73c-10.27,12.48 -21.74,21.86 -34.53,28.07 -12.72,6.21 -26.7,9.32 -41.81,9.32 -26.88,0 -49.88,-9.74 -68.94,-29.21 -19.05,-19.53 -28.55,-43.19 -28.55,-71.15 0,-27.3 9.62,-50.71 28.85,-70.13 19.18,-19.41 42.29,-29.15 69.35,-29.15 15.6,0 29.69,3.35 42.36,9.98 12.6,6.63 23.71,16.6 33.27,29.92l0 -108.71 24.37 0zm-98.08 92.47c-13.62,0 -26.23,3.34 -37.7,10.03 -11.53,6.63 -20.67,16.01 -27.48,28.08 -6.81,12.07 -10.21,24.85 -10.21,38.35 0,13.32 3.4,26.1 10.27,38.29 6.87,12.19 16.07,21.69 27.66,28.44 11.59,6.81 24.02,10.21 37.28,10.21 13.32,0 26.04,-3.35 37.99,-10.1 12.01,-6.75 21.21,-15.83 27.66,-27.35 6.45,-11.47 9.67,-24.44 9.67,-38.83 0,-21.93 -7.22,-40.27 -21.74,-55.02 -14.46,-14.76 -32.26,-22.1 -53.4,-22.1z"/>
    <path class="fil2" d="M2006.49 1044.34l25.09 0 0 27.84c7.47,-10.99 15.35,-19.12 23.66,-24.49 8.3,-5.32 16.96,-8.01 25.92,-8.01 6.81,0 14.04,2.15 21.74,6.45l-12.78 20.55c-5.14,-2.21 -9.44,-3.34 -12.96,-3.34 -8.19,0 -16.07,3.34 -23.66,10.03 -7.58,6.69 -13.38,17.15 -17.38,31.24 -3.05,10.82 -4.54,32.74 -4.54,65.71l0 64.34 -25.09 0 0 -190.32z"/>
    <polygon class="fil2" points="2126.65,1044.34 2266.79,1044.34 2158.9,1212.8 2263.2,1212.8 2263.2,1234.66 2116.61,1234.66 2224.97,1065.49 2126.65,1065.49 "/>
    <path class="fil0" d="M1975.16 1198.79c-6.82,8.79 -15.64,16.69 -26.51,23.8 -26.09,17.06 -52,21.87 -77.81,14.48 -25.82,-7.38 -45.72,-21.78 -59.71,-43.18 -13.18,-20.15 -18.7,-42.23 -16.55,-66.12 2.64,-30.35 17.22,-54.23 43.67,-71.52 27.25,-17.82 55.78,-21.77 85.47,-11.85 21.03,6.95 38.76,21.19 53.18,42.81l-143.99 94.15c12.46,18.19 28.29,29.4 47.42,33.66 19.21,4.28 37.27,0.9 54.12,-10.12 8.15,-5.33 15.18,-11.93 21.05,-19.76 4.3,-5.74 7.66,-11.56 10.08,-17.47 1.98,10.85 5.18,21.24 9.58,31.12zm-32.33 -114.57c-9.91,-9.15 -19.6,-15.23 -29.13,-18.35 -9.58,-3.09 -19.96,-3.79 -31.23,-2.14 -11.27,1.66 -21.67,5.61 -31.17,11.82 -15.75,10.3 -25.98,24.13 -30.71,41.56 -3.49,12.78 -2.53,27.79 2.8,45.21l119.44 -78.1z"/>
   </g>
   <g>
    <polygon class="fil3" points="0,1379.2 18.3,1379.2 74.1,1509.33 130.83,1379.2 149.13,1379.2 75.85,1547.3 72.11,1547.3 "/>
    <path class="fil3" d="M255.93 1374.99l15.92 0 0 70.43c6.48,-8.51 13.66,-14.91 21.43,-19.12 7.8,-4.25 16.23,-6.36 25.32,-6.36 9.32,0 17.6,2.34 24.81,7.06 7.22,4.72 12.57,11.08 16,19 3.44,7.96 5.15,20.41 5.15,37.38l0 63.92 -15.92 0 0 -59.23c0,-14.28 -0.58,-23.84 -1.71,-28.64 -1.99,-8.2 -5.62,-14.36 -10.85,-18.54 -5.23,-4.13 -12.1,-6.2 -20.6,-6.2 -9.72,0 -18.42,3.2 -26.11,9.6 -7.68,6.36 -12.76,14.28 -15.21,23.72 -1.53,6.09 -2.31,17.33 -2.31,33.75l0 45.54 -15.92 0 0 -172.31z"/>
    <path class="fil3" d="M388.17 1371.95c3.63,0 6.71,1.28 9.29,3.9 2.57,2.57 3.86,5.73 3.86,9.36 0,3.59 -1.29,6.71 -3.86,9.29 -2.58,2.61 -5.66,3.9 -9.29,3.9 -3.59,0 -6.63,-1.29 -9.21,-3.9 -2.57,-2.58 -3.86,-5.7 -3.86,-9.29 0,-3.63 1.29,-6.79 3.86,-9.36 2.58,-2.62 5.62,-3.9 9.21,-3.9zm-7.92 51.03l15.92 0 0 124.32 -15.92 0 0 -124.32z"/>
    <path class="fil3" d="M540.54 1448.81l-12.69 7.88c-11,-14.51 -26.02,-21.77 -45.06,-21.77 -15.22,0 -27.86,4.88 -37.93,14.6 -10.03,9.71 -15.06,21.49 -15.06,35.39 0,9.05 2.3,17.55 6.94,25.51 4.61,7.96 10.97,14.17 19.05,18.58 8.03,4.41 17.09,6.59 27.11,6.59 18.34,0 33.33,-7.26 44.95,-21.77l12.69 8.35c-5.97,8.93 -13.97,15.84 -24,20.8 -10.07,4.91 -21.5,7.37 -34.34,7.37 -19.74,0 -36.09,-6.24 -49.08,-18.69 -13,-12.49 -19.47,-27.63 -19.47,-45.5 0,-11.98 3.04,-23.13 9.13,-33.44 6.04,-10.3 14.39,-18.33 25.01,-24.11 10.65,-5.77 22.51,-8.66 35.66,-8.66 8.27,0 16.23,1.25 23.92,3.74 7.65,2.5 14.16,5.78 19.51,9.8 5.38,4.02 9.91,9.13 13.66,15.33z"/>
    <polygon class="fil3" points="559.15,1374.99 575.07,1374.99 575.07,1547.3 559.15,1547.3 "/>
    <polygon class="fil3" points="818.64,1379.2 835.5,1379.2 835.5,1449.67 921.19,1449.67 921.19,1379.2 938.04,1379.2 938.04,1547.3 921.19,1547.3 921.19,1466.06 835.5,1466.06 835.5,1547.3 818.64,1547.3 "/>
    <path class="fil3" d="M965.59 1371.95c3.63,0 6.71,1.28 9.29,3.9 2.57,2.57 3.86,5.73 3.86,9.36 0,3.59 -1.29,6.71 -3.86,9.29 -2.58,2.61 -5.66,3.9 -9.29,3.9 -3.59,0 -6.63,-1.29 -9.21,-3.9 -2.57,-2.58 -3.86,-5.7 -3.86,-9.29 0,-3.63 1.29,-6.79 3.86,-9.36 2.58,-2.62 5.62,-3.9 9.21,-3.9zm-7.92 51.03l15.92 0 0 124.32 -15.92 0 0 -124.32z"/>
    <path class="fil3" d="M1059.89 1436.48l-10.3 10.62c-8.54,-8.28 -16.93,-12.41 -25.09,-12.41 -5.19,0 -9.63,1.71 -13.34,5.15 -3.71,3.39 -5.58,7.41 -5.58,11.98 0,4.02 1.52,7.88 4.56,11.51 3.05,3.74 9.49,8.11 19.24,13.15 11.86,6.12 19.94,12.09 24.23,17.79 4.18,5.78 6.28,12.29 6.28,19.51 0,10.22 -3.59,18.85 -10.76,25.95 -7.18,7.06 -16.16,10.61 -26.93,10.61 -7.18,0 -14.01,-1.56 -20.56,-4.68 -6.52,-3.12 -11.9,-7.41 -16.19,-12.92l10.06 -11.43c8.16,9.21 16.86,13.81 26.03,13.81 6.4,0 11.86,-2.07 16.39,-6.16 4.48,-4.1 6.75,-8.94 6.75,-14.48 0,-4.56 -1.49,-8.62 -4.45,-12.21 -3.01,-3.51 -9.72,-7.92 -20.17,-13.23 -11.24,-5.77 -18.89,-11.47 -22.91,-17.09 -4.06,-5.62 -6.09,-12.02 -6.09,-19.24 0,-9.4 3.24,-17.2 9.68,-23.45 6.48,-6.2 14.63,-9.32 24.51,-9.32 11.47,0 23.02,5.5 34.64,16.54z"/>
    <polygon class="fil3" points="1097.43,1376.63 1113.35,1376.63 1113.35,1422.98 1138.63,1422.98 1138.63,1436.79 1113.35,1436.79 1113.35,1547.3 1097.43,1547.3 1097.43,1436.79 1075.65,1436.79 1075.65,1422.98 1097.43,1422.98 "/>
    <path class="fil3" d="M1205.9 1419.94c19.16,0 35.08,6.9 47.68,20.76 11.48,12.6 17.21,27.54 17.21,44.79 0,17.33 -6.05,32.47 -18.18,45.42 -12.1,12.95 -27.7,19.43 -46.71,19.43 -19.12,0 -34.76,-6.48 -46.86,-19.43 -12.13,-12.95 -18.18,-28.09 -18.18,-45.42 0,-17.17 5.73,-32.07 17.21,-44.68 12.6,-13.93 28.56,-20.87 47.83,-20.87zm-0.08 15.68c-13.3,0 -24.69,4.88 -34.25,14.68 -9.56,9.79 -14.32,21.65 -14.32,35.54 0,8.94 2.18,17.29 6.51,25.05 4.37,7.73 10.26,13.7 17.68,17.91 7.37,4.22 15.53,6.32 24.38,6.32 8.86,0 17.02,-2.1 24.39,-6.32 7.42,-4.21 13.31,-10.18 17.68,-17.91 4.33,-7.76 6.51,-16.11 6.51,-25.05 0,-13.89 -4.8,-25.75 -14.39,-35.54 -9.56,-9.8 -20.96,-14.68 -34.19,-14.68z"/>
    <path class="fil3" d="M1287.34 1422.98l16.39 0 0 18.19c4.88,-7.18 10.03,-12.49 15.45,-16 5.42,-3.48 11.08,-5.23 16.94,-5.23 4.44,0 9.17,1.4 14.2,4.21l-8.35 13.43c-3.36,-1.45 -6.17,-2.19 -8.47,-2.19 -5.34,0 -10.5,2.19 -15.45,6.56 -4.96,4.37 -8.74,11.19 -11.35,20.4 -1.99,7.07 -2.97,21.39 -2.97,42.92l0 42.03 -16.39 0 0 -124.32z"/>
    <polygon class="fil3" points="1367.33,1422.98 1383.95,1422.98 1426.83,1518.31 1468.5,1422.98 1485.56,1422.98 1411.34,1592.72 1394.29,1592.72 1418.64,1537.07 "/>
    <path class="fil3" d="M1525.46 1379.2l33.56 0c18.69,0 31.37,0.78 38,2.3 10.03,2.27 18.15,7.15 24.39,14.68 6.28,7.49 9.4,16.73 9.4,27.7 0,9.13 -2.14,17.17 -6.47,24.07 -4.3,6.95 -10.46,12.18 -18.5,15.73 -8,3.55 -19.08,5.34 -33.2,5.42l60.51 78.2 -20.64 0 -60.51 -78.2 -9.68 0 0 78.2 -16.86 0 0 -168.1zm16.86 16.39l0 57.12 29.03 0.24c11.28,0 19.59,-1.05 24.97,-3.2 5.39,-2.15 9.6,-5.54 12.64,-10.22 3.01,-4.69 4.53,-9.91 4.53,-15.73 0,-5.62 -1.52,-10.77 -4.6,-15.37 -3.05,-4.61 -7.07,-7.88 -12.06,-9.87 -4.96,-1.99 -13.23,-2.97 -24.78,-2.97l-29.73 0z"/>
    <path class="fil3" d="M1771.35 1422.98l15.92 0 0 22.87c6.32,-8.7 13.58,-15.18 21.81,-19.47 8.24,-4.3 17.41,-6.44 27.55,-6.44 17.68,0 32.78,6.36 45.34,19.04 12.56,12.68 18.85,27.98 18.85,45.81 0,18.26 -6.25,33.71 -18.69,46.47 -12.45,12.72 -27.47,19.08 -45.07,19.08 -9.87,0 -18.96,-2.07 -27.27,-6.16 -8.32,-4.14 -15.81,-10.27 -22.52,-18.42l0 66.96 -15.92 0 0 -169.74zm64.11 12.41c-13.85,0 -25.48,4.8 -34.92,14.44 -9.48,9.63 -14.21,21.61 -14.21,35.93 0,9.41 2.11,17.87 6.33,25.37 4.21,7.53 10.26,13.46 18.1,17.87 7.88,4.41 16.19,6.59 24.89,6.59 8.59,0 16.67,-2.22 24.24,-6.67 7.57,-4.41 13.57,-10.61 18.06,-18.57 4.49,-7.96 6.71,-16.31 6.71,-25.01 0,-8.82 -2.22,-17.17 -6.67,-25.06 -4.45,-7.88 -10.42,-14 -17.95,-18.33 -7.49,-4.37 -15.72,-6.56 -24.58,-6.56z"/>
    <path class="fil3" d="M1983.2 1419.94c19.16,0 35.08,6.9 47.68,20.76 11.47,12.6 17.21,27.54 17.21,44.79 0,17.33 -6.05,32.47 -18.19,45.42 -12.09,12.95 -27.7,19.43 -46.7,19.43 -19.12,0 -34.77,-6.48 -46.86,-19.43 -12.14,-12.95 -18.19,-28.09 -18.19,-45.42 0,-17.17 5.74,-32.07 17.21,-44.68 12.6,-13.93 28.56,-20.87 47.84,-20.87zm-0.08 15.68c-13.31,0 -24.7,4.88 -34.26,14.68 -9.56,9.79 -14.32,21.65 -14.32,35.54 0,8.94 2.19,17.29 6.52,25.05 4.37,7.73 10.26,13.7 17.67,17.91 7.38,4.22 15.53,6.32 24.39,6.32 8.86,0 17.01,-2.1 24.39,-6.32 7.41,-4.21 13.3,-10.18 17.67,-17.91 4.33,-7.76 6.52,-16.11 6.52,-25.05 0,-13.89 -4.8,-25.75 -14.4,-35.54 -9.56,-9.8 -20.95,-14.68 -34.18,-14.68z"/>
    <path class="fil3" d="M2066.08 1422.98l16.39 0 0 18.19c4.88,-7.18 10.03,-12.49 15.45,-16 5.43,-3.48 11.08,-5.23 16.94,-5.23 4.44,0 9.17,1.4 14.2,4.21l-8.35 13.43c-3.36,-1.45 -6.17,-2.19 -8.47,-2.19 -5.34,0 -10.49,2.19 -15.45,6.56 -4.95,4.37 -8.74,11.19 -11.35,20.4 -1.99,7.07 -2.97,21.39 -2.97,42.92l0 42.03 -16.39 0 0 -124.32z"/>
    <polygon class="fil3" points="2166.47,1376.63 2182.39,1376.63 2182.39,1422.98 2207.68,1422.98 2207.68,1436.79 2182.39,1436.79 2182.39,1547.3 2166.47,1547.3 2166.47,1436.79 2144.7,1436.79 2144.7,1422.98 2166.47,1422.98 "/>
    <path class="fil3" d="M2290.32 1436.48l-10.3 10.62c-8.55,-8.28 -16.94,-12.41 -25.09,-12.41 -5.19,0 -9.64,1.71 -13.35,5.15 -3.7,3.39 -5.58,7.41 -5.58,11.98 0,4.02 1.52,7.88 4.57,11.51 3.04,3.74 9.48,8.11 19.23,13.15 11.87,6.12 19.94,12.09 24.24,17.79 4.17,5.78 6.28,12.29 6.28,19.51 0,10.22 -3.59,18.85 -10.77,25.95 -7.18,7.06 -16.16,10.61 -26.92,10.61 -7.18,0 -14.01,-1.56 -20.57,-4.68 -6.51,-3.12 -11.9,-7.41 -16.19,-12.92l10.07 -11.43c8.15,9.21 16.85,13.81 26.02,13.81 6.4,0 11.86,-2.07 16.39,-6.16 4.49,-4.1 6.75,-8.94 6.75,-14.48 0,-4.56 -1.48,-8.62 -4.45,-12.21 -3,-3.51 -9.71,-7.92 -20.17,-13.23 -11.24,-5.77 -18.89,-11.47 -22.91,-17.09 -4.05,-5.62 -6.08,-12.02 -6.08,-19.24 0,-9.4 3.24,-17.2 9.67,-23.45 6.48,-6.2 14.64,-9.32 24.51,-9.32 11.47,0 23.02,5.5 34.65,16.54z"/>
    <path class="fil1" d="M240.2 1524.52c-4.35,5.62 -9.98,10.66 -16.92,15.2 -16.66,10.89 -33.19,13.96 -49.67,9.24 -16.47,-4.71 -29.18,-13.9 -38.11,-27.56 -8.41,-12.86 -11.93,-26.95 -10.56,-42.2 1.69,-19.37 10.99,-34.61 27.87,-45.65 17.39,-11.37 35.61,-13.89 54.55,-7.56 13.43,4.43 24.74,13.52 33.95,27.32l-91.9 60.09c7.95,11.61 18.05,18.77 30.26,21.49 12.26,2.73 23.79,0.57 34.54,-6.46 5.2,-3.4 9.69,-7.62 13.44,-12.61 2.74,-3.67 4.89,-7.38 6.44,-11.16 1.26,6.93 3.3,13.56 6.11,19.86zm-20.64 -73.12c-6.32,-5.84 -12.51,-9.72 -18.59,-11.71 -6.12,-1.97 -12.74,-2.42 -19.93,-1.36 -7.19,1.06 -13.84,3.58 -19.9,7.54 -10.05,6.57 -16.58,15.4 -19.6,26.53 -2.23,8.15 -1.61,17.73 1.79,28.85l76.23 -49.85z"/>
    <path class="fil1" d="M709.17 1524.52c-4.35,5.62 -9.98,10.66 -16.92,15.2 -16.66,10.89 -33.19,13.96 -49.67,9.24 -16.47,-4.71 -29.18,-13.9 -38.11,-27.56 -8.41,-12.86 -11.93,-26.95 -10.55,-42.2 1.68,-19.37 10.98,-34.61 27.87,-45.65 17.39,-11.37 35.6,-13.89 54.55,-7.56 13.42,4.43 24.74,13.52 33.94,27.32l-91.9 60.09c7.95,11.61 18.05,18.77 30.26,21.49 12.27,2.73 23.79,0.57 34.54,-6.46 5.21,-3.4 9.69,-7.62 13.44,-12.61 2.75,-3.67 4.89,-7.38 6.44,-11.16 1.26,6.93 3.3,13.56 6.11,19.86zm-20.64 -73.12c-6.32,-5.84 -12.5,-9.72 -18.59,-11.71 -6.11,-1.97 -12.74,-2.42 -19.93,-1.36 -7.19,1.06 -13.83,3.58 -19.9,7.54 -10.05,6.57 -16.58,15.4 -19.6,26.53 -2.22,8.15 -1.61,17.73 1.79,28.85l76.23 -49.85z"/>
    <path class="fil1" d="M1749.54 1524.52c-4.36,5.62 -9.99,10.66 -16.92,15.2 -16.66,10.89 -33.2,13.96 -49.67,9.24 -16.48,-4.71 -29.18,-13.9 -38.11,-27.56 -8.41,-12.86 -11.93,-26.95 -10.56,-42.2 1.68,-19.37 10.99,-34.61 27.87,-45.65 17.39,-11.37 35.6,-13.89 54.55,-7.56 13.42,4.43 24.74,13.52 33.94,27.32l-91.9 60.09c7.96,11.61 18.06,18.77 30.27,21.49 12.26,2.73 23.79,0.57 34.54,-6.46 5.2,-3.4 9.69,-7.62 13.44,-12.61 2.74,-3.67 4.89,-7.38 6.43,-11.16 1.26,6.93 3.31,13.56 6.12,19.86zm-20.64 -73.12c-6.33,-5.84 -12.51,-9.72 -18.59,-11.71 -6.12,-1.97 -12.75,-2.42 -19.94,-1.36 -7.19,1.06 -13.83,3.58 -19.89,7.54 -10.05,6.57 -16.58,15.4 -19.6,26.53 -2.23,8.15 -1.62,17.73 1.78,28.85l76.24 -49.85z"/>
   </g>
  </g>
 </g>
</svg>
